<?xml version="1.0" standalone="no"?>
<!DOCTYPE svg PUBLIC "-//W3C//DTD SVG 20010904//EN"
 "http://www.w3.org/TR/2001/REC-SVG-20010904/DTD/svg10.dtd">
<svg version="1.0" xmlns="http://www.w3.org/2000/svg"
 width="887.000000pt" height="1280.000000pt" viewBox="0 0 887.000000 1280.000000"
 preserveAspectRatio="xMidYMid meet">
<metadata>
Created by potrace 1.15, written by Peter Selinger 2001-2017
</metadata>
<g transform="translate(0.000000,1280.000000) scale(0.100000,-0.100000)"
fill="#000000" stroke="none">
<path d="M6460 12778 c-92 -47 -48 -118 71 -118 69 0 109 26 109 71 0 22 -8
34 -32 49 -43 26 -93 25 -148 -2z"/>
<path d="M6195 12738 c-55 -29 -60 -79 -12 -108 65 -40 130 -15 130 50 0 58
-62 89 -118 58z"/>
<path d="M0 12629 c0 -72 162 -284 211 -277 13 2 25 11 27 21 12 61 -153 277
-211 277 -21 0 -27 -5 -27 -21z"/>
<path d="M5233 12070 c-23 -9 -38 -43 -28 -60 9 -14 41 -12 74 4 31 16 57 44
49 52 -11 10 -74 13 -95 4z"/>
<path d="M430 11952 c0 -31 66 -156 104 -196 34 -37 38 -38 53 -23 15 15 15
20 -2 64 -10 26 -31 67 -47 90 -47 70 -108 106 -108 65z"/>
<path d="M680 11598 c0 -57 97 -215 175 -287 88 -81 79 -12 -18 135 -54 82
-111 150 -138 164 -16 9 -19 7 -19 -12z"/>
<path d="M3906 10696 c-104 -24 -235 -98 -330 -187 -99 -93 -136 -156 -136
-234 0 -80 36 -141 142 -237 49 -45 102 -103 116 -128 25 -42 27 -55 32 -198
4 -137 7 -155 24 -168 26 -18 69 -18 106 1 33 17 35 21 50 140 8 59 20 104 35
130 35 60 118 135 235 213 117 77 152 110 173 162 35 82 29 233 -13 327 -65
146 -247 221 -434 179z"/>
<path d="M1505 10270 c-71 -28 -95 -61 -95 -132 0 -122 71 -250 216 -387 188
-178 278 -312 511 -759 196 -377 238 -453 398 -722 126 -212 334 -579 495
-875 260 -476 563 -1022 938 -1685 228 -404 496 -881 595 -1060 283 -510 305
-548 388 -672 43 -64 143 -203 222 -310 204 -275 248 -354 282 -517 20 -97 38
-312 33 -390 -6 -84 -26 -115 -86 -136 -126 -45 -167 -70 -258 -160 -117 -115
-167 -209 -172 -319 -4 -89 16 -124 87 -161 158 -79 425 -157 546 -159 76 -1
83 1 140 36 92 56 104 55 220 -18 114 -72 203 -109 340 -140 61 -14 129 -34
153 -44 71 -32 67 -69 -8 -70 -79 -1 -198 -78 -332 -217 -87 -91 -128 -153
-128 -194 0 -31 81 -106 157 -147 126 -66 155 -108 171 -245 12 -107 45 -178
118 -252 149 -151 371 -224 651 -213 93 4 118 8 179 35 193 84 443 278 519
404 44 72 77 99 121 99 29 0 36 -5 48 -35 18 -42 41 -49 145 -43 88 5 138 27
159 71 31 64 -30 140 -223 278 -146 104 -235 185 -286 261 -23 33 -55 68 -72
79 -56 33 -107 21 -107 -27 0 -21 57 -81 98 -103 72 -39 230 -339 209 -396
-16 -40 -106 5 -345 173 -95 67 -209 139 -252 161 -117 59 -166 66 -342 52
-190 -15 -211 -5 -175 82 21 49 40 61 78 48 69 -24 169 34 226 129 27 44 33
65 33 111 0 63 13 109 31 109 6 0 51 -23 98 -50 183 -106 220 -87 139 70 -41
79 -43 84 -42 173 1 100 17 174 65 294 34 85 30 98 -30 109 -83 14 -329 151
-455 253 -38 31 -38 31 -12 31 72 0 298 -110 394 -192 18 -15 43 -28 56 -28
32 0 60 33 53 62 -10 40 -65 104 -122 144 -48 33 -62 37 -109 36 -51 -1 -55 1
-103 47 -57 57 -104 74 -208 75 -97 1 -137 -9 -185 -49 -52 -43 -93 -51 -162
-31 -81 23 -169 86 -297 210 -153 149 -170 160 -226 152 -42 -7 -47 -5 -89 34
-87 80 -246 348 -246 414 0 24 7 38 30 54 17 13 30 31 30 42 0 29 -47 59 -104
66 -67 9 -112 54 -190 195 -72 127 -106 178 -261 389 -410 556 -1211 1822
-1972 3115 -486 825 -598 1007 -697 1130 -35 44 -66 96 -82 140 -31 83 -106
228 -261 503 -141 249 -165 302 -161 344 3 29 8 34 53 50 28 10 70 26 94 35
25 9 64 34 87 55 98 90 74 218 -63 349 -74 70 -149 119 -278 180 -176 82 -270
97 -370 59z"/>
<path d="M5325 10131 c-201 -58 -296 -191 -221 -310 55 -87 186 -171 299 -192
66 -12 142 -1 213 30 57 26 157 121 184 175 23 50 26 115 6 155 -65 124 -302
194 -481 142z"/>
<path d="M190 9992 l-23 -18 28 -22 c15 -12 37 -22 49 -22 31 0 91 33 91 50 0
31 -111 40 -145 12z"/>
<path d="M747 9033 c-11 -10 -8 -72 4 -96 17 -32 51 -67 65 -67 22 0 44 30 44
59 0 34 -31 76 -70 96 -33 17 -34 17 -43 8z"/>
<path d="M942 8853 c2 -18 18 -38 48 -61 25 -19 51 -45 58 -59 21 -39 18 -101
-7 -127 -20 -21 -33 -24 -149 -29 -70 -4 -144 -12 -165 -19 -39 -12 -61 -36
-49 -55 11 -15 48 -33 72 -33 59 0 115 -69 141 -175 40 -160 122 -239 316
-306 91 -31 107 -33 223 -33 106 0 134 3 181 22 146 58 290 175 340 277 28 57
31 72 27 133 -3 55 -11 85 -41 145 -88 178 -236 247 -613 287 -105 11 -224 29
-265 40 -105 28 -121 27 -117 -7z"/>
<path d="M403 8820 c-121 -70 -139 -196 -33 -240 40 -17 129 -8 200 19 72 27
154 81 158 104 5 25 -71 97 -131 125 -67 32 -129 29 -194 -8z"/>
<path d="M3317 8486 c-104 -43 -197 -121 -197 -164 0 -51 136 -194 215 -227
98 -41 326 70 351 170 19 75 -25 166 -102 211 -39 23 -62 28 -128 31 -68 3
-90 0 -139 -21z"/>
<path d="M5076 8399 c-85 -20 -136 -77 -122 -134 11 -42 74 -103 144 -137 122
-60 267 -48 315 26 34 52 13 150 -45 203 -40 38 -91 53 -175 52 -43 -1 -96 -5
-117 -10z"/>
<path d="M300 8150 c-26 -26 -26 -64 0 -90 24 -24 32 -25 76 -4 61 29 67 72
13 99 -38 20 -65 19 -89 -5z"/>
<path d="M5698 8115 c-49 -27 -48 -84 2 -110 48 -25 97 -19 131 14 16 16 29
35 29 41 0 6 -13 25 -29 41 -34 33 -87 39 -133 14z"/>
<path d="M6232 7972 c-12 -2 -29 -14 -38 -26 -41 -63 76 -129 155 -87 28 16
27 35 -6 71 -29 32 -72 48 -111 42z"/>
<path d="M5023 7964 c-27 -11 -6 -100 31 -137 27 -26 58 -20 104 19 34 29 40
39 32 53 -15 30 -139 77 -167 65z"/>
<path d="M6462 7928 c-16 -16 -15 -53 1 -66 23 -19 61 -23 82 -9 19 14 18 16
-17 51 -39 39 -48 42 -66 24z"/>
<path d="M6890 7911 c-81 -29 -107 -75 -73 -133 39 -68 144 -87 211 -39 53 38
54 124 1 163 -37 27 -78 30 -139 9z"/>
<path d="M1692 7880 c-62 -26 -23 -80 59 -80 63 0 101 17 97 44 -6 39 -96 60
-156 36z"/>
<path d="M3942 7880 c-49 -11 -56 -23 -39 -56 31 -60 149 -121 206 -107 68 16
93 84 45 122 -43 34 -153 55 -212 41z"/>
<path d="M7423 7824 c-29 -14 -63 -65 -63 -94 0 -30 32 -69 70 -84 51 -20 129
-21 157 -1 47 33 54 133 12 171 -28 25 -133 31 -176 8z"/>
<path d="M4173 7299 c-195 -33 -411 -206 -479 -386 -22 -56 -11 -122 36 -217
68 -137 166 -216 371 -296 126 -49 176 -74 191 -94 4 -6 -11 -27 -33 -47 -33
-30 -39 -42 -39 -75 0 -71 46 -129 172 -216 87 -59 127 -101 108 -113 -15 -9
-12 -72 5 -104 18 -35 88 -71 138 -71 112 0 185 100 127 173 -12 14 -38 36
-60 48 -59 34 -59 47 4 104 62 56 86 103 86 169 0 83 -31 131 -112 172 -77 39
-69 55 79 158 123 86 174 155 192 263 19 119 -24 230 -128 333 -115 113 -251
170 -474 200 -89 11 -111 11 -184 -1z"/>
<path d="M7770 5093 c-65 -21 -90 -67 -70 -127 14 -45 53 -59 119 -45 91 19
140 72 120 127 -15 39 -111 65 -169 45z"/>
<path d="M6482 4951 c-122 -89 -173 -248 -112 -348 24 -40 130 -113 174 -120
59 -9 219 51 265 101 20 21 23 32 18 67 -7 53 -78 158 -172 256 -82 85 -107
91 -173 44z"/>
<path d="M5747 4696 c-41 -15 -64 -30 -89 -61 -60 -70 50 -205 168 -205 81 0
193 79 210 147 10 37 -22 91 -66 115 -42 22 -165 24 -223 4z"/>
<path d="M3322 4648 c-19 -19 -14 -82 8 -110 25 -33 91 -59 151 -60 51 -1 79
14 79 42 0 27 -85 97 -146 120 -63 23 -76 24 -92 8z"/>
<path d="M6440 4149 c-41 -17 -90 -59 -90 -79 0 -26 81 -94 128 -108 55 -17
147 -15 182 3 78 40 56 141 -39 181 -38 16 -144 18 -181 3z"/>
<path d="M4177 4070 c-19 -27 -7 -67 28 -100 30 -29 50 -21 65 25 11 33 10 40
-7 64 -26 34 -66 39 -86 11z"/>
<path d="M2731 4000 c-80 -52 -151 -123 -151 -152 0 -52 188 -188 261 -188 50
0 118 38 186 105 69 68 84 102 59 141 -35 53 -195 134 -264 134 -17 0 -55 -17
-91 -40z"/>
<path d="M3885 3886 c-83 -42 -178 -123 -205 -177 -42 -81 -19 -156 72 -241
74 -70 146 -108 204 -108 54 0 191 43 268 83 72 38 103 83 116 165 24 144 -26
204 -225 277 -117 42 -149 42 -230 1z"/>
<path d="M6915 3906 c-39 -17 -68 -50 -63 -73 5 -26 110 -30 158 -6 90 46 -1
121 -95 79z"/>
<path d="M5816 3818 c17 -56 68 -104 93 -89 19 12 -5 54 -49 86 -42 31 -53 32
-44 3z"/>
<path d="M4960 3535 c-17 -21 -4 -50 43 -90 49 -42 110 -62 144 -46 13 6 23
17 23 25 0 25 -51 76 -101 101 -55 28 -91 32 -109 10z"/>
<path d="M6276 3395 c-74 -26 -141 -88 -152 -142 -14 -69 96 -121 237 -111
169 12 192 136 42 229 -51 32 -85 38 -127 24z"/>
<path d="M5219 3351 c-20 -16 -22 -23 -13 -38 24 -40 111 -57 149 -29 26 19
13 43 -37 66 -54 25 -70 25 -99 1z"/>
<path d="M5020 3010 c-16 -16 -18 -25 -10 -40 14 -26 28 -33 62 -32 37 1 58
18 58 48 0 44 -74 60 -110 24z"/>
<path d="M7454 1619 c-7 -13 41 -66 69 -75 37 -12 53 57 18 76 -26 13 -78 13
-87 -1z"/>
<path d="M8413 889 c-35 -22 -43 -53 -17 -63 26 -10 91 -7 118 5 32 15 38 32
20 58 -20 28 -78 28 -121 0z"/>
<path d="M8241 744 c-124 -33 -269 -141 -317 -235 -54 -108 -23 -221 91 -328
149 -139 339 -205 497 -172 124 26 252 118 318 227 31 51 35 66 35 124 -1 48
-7 77 -24 110 -64 124 -175 222 -299 266 -79 28 -214 32 -301 8z"/>
<path d="M5896 613 c-40 -10 -116 -65 -137 -99 -20 -33 -20 -36 -4 -61 42 -63
120 -113 178 -113 46 0 109 47 136 102 26 55 26 74 1 115 -32 53 -100 75 -174
56z"/>
</g>
</svg>
